<svg xmlns="http://www.w3.org/2000/svg" viewBox="0 0 256 256">
  <defs>
    <linearGradient id="poopGradient" x1="0%" y1="0%" x2="100%" y2="100%">
      <stop offset="0%" style="stop-color:#8B5CF6;stop-opacity:1" />
      <stop offset="100%" style="stop-color:#3B82F6;stop-opacity:1" />
    </linearGradient>
  </defs>
  <path d="M128 40c-15 0-25 10-25 22 0 8 4 15 10 19-12 2-20 12-20 24 0 10 6 18 14 22-14 3-24 15-24 29 0 18 15 33 35 33h60c20 0 35-15 35-33 0-14-10-26-24-29 8-4 14-12 14-22 0-12-8-22-20-24 6-4 10-11 10-19 0-12-10-22-25-22-8 0-15 3-20 8-5-5-12-8-20-8z" fill="url(#poopGradient)" stroke="#1E293B" stroke-width="4"/>
  <ellipse cx="108" cy="130" rx="8" ry="12" fill="#1E293B"/>
  <ellipse cx="148" cy="130" rx="8" ry="12" fill="#1E293B"/>
  <path d="M108 155c0 0 8 8 20 8s20-8 20-8" fill="none" stroke="#1E293B" stroke-width="5" stroke-linecap="round"/>
</svg>